<?xml version="1.0" standalone="no"?><!DOCTYPE svg PUBLIC "-//W3C//DTD SVG 1.1//EN" "http://www.w3.org/Graphics/SVG/1.1/DTD/svg11.dtd"><svg t="1771837100205" class="icon" viewBox="0 0 1024 1024" version="1.1" xmlns="http://www.w3.org/2000/svg" p-id="11038" xmlns:xlink="http://www.w3.org/1999/xlink" width="200" height="200"><path d="M85.333333 256a42.666667 42.666667 0 0 1 42.666667-42.666667h768a42.666667 42.666667 0 1 1 0 85.333334H128a42.666667 42.666667 0 0 1-42.666667-42.666667zM85.333333 512a42.666667 42.666667 0 0 1 42.666667-42.666667h640a170.666667 170.666667 0 1 1 0 341.333334h-67.669333l12.501333 12.501333a42.666667 42.666667 0 0 1-60.330667 60.330667l-85.333333-85.333334a42.666667 42.666667 0 0 1 0-60.330666l85.333333-85.333334a42.666667 42.666667 0 0 1 60.330667 60.330667l-12.501333 12.501333H768a85.333333 85.333333 0 0 0 0-170.666666H128a42.666667 42.666667 0 0 1-42.666667-42.666667z" p-id="11039"></path><path d="M85.333333 768a42.666667 42.666667 0 0 1 42.666667-42.666667h298.666667a42.666667 42.666667 0 1 1 0 85.333334H128a42.666667 42.666667 0 0 1-42.666667-42.666667z" p-id="11040"></path></svg>