<?xml version="1.0" standalone="no"?><!DOCTYPE svg PUBLIC "-//W3C//DTD SVG 1.1//EN" "http://www.w3.org/Graphics/SVG/1.1/DTD/svg11.dtd"><svg t="1769750068527" class="icon" viewBox="0 0 1024 1024" version="1.1" xmlns="http://www.w3.org/2000/svg" p-id="1627" xmlns:xlink="http://www.w3.org/1999/xlink" width="200" height="200"><path d="M532.8 1024c-30.4 0-56-17.6-68.8-43.2L9.6 115.2C-8 86.4 0 48 22.4 22.4 48 0 86.4-8 115.2 9.6l865.6 452.8c30.4 12.8 43.2 43.2 43.2 72 0 30.4-20.8 59.2-51.2 68.8L708.8 704l-102.4 264c-12.8 30.4-38.4 48-73.6 56zM94.4 94.4l435.2 835.2 107.2-268.8c4.8-12.8 12.8-20.8 25.6-25.6L931.2 528 94.4 94.4z" p-id="1628"></path></svg>