<?xml version="1.0" standalone="no"?><!DOCTYPE svg PUBLIC "-//W3C//DTD SVG 1.1//EN" "http://www.w3.org/Graphics/SVG/1.1/DTD/svg11.dtd"><svg t="1771836987693" class="icon" viewBox="0 0 1024 1024" version="1.1" xmlns="http://www.w3.org/2000/svg" p-id="8913" xmlns:xlink="http://www.w3.org/1999/xlink" width="200" height="200"><path d="M0 0m0 0l1024 0q0 0 0 0l0 1024q0 0 0 0l-1024 0q0 0 0 0l0-1024q0 0 0 0Z" fill="#DBDBDB" fill-opacity="0" p-id="8914"></path><path d="M345.6 164.864h126.976L754.176 896H634.368L565.76 707.584H251.392L182.784 896H64L345.6 164.864z m-60.416 450.56h246.784L411.136 284.672H407.04L285.184 615.424z" fill="#333333" p-id="8915"></path><path d="M576 240A48 48 0 0 1 624 192h288a48 48 0 0 1 0 96h-288A48 48 0 0 1 576 240zM672 464a48 48 0 0 1 48-48h192a48 48 0 0 1 0 96h-192a48 48 0 0 1-48-48zM768 688a48 48 0 0 1 48-48h96a48 48 0 0 1 0 96h-96a48 48 0 0 1-48-48z" fill="#333333" p-id="8916"></path></svg>